<svg width="57" height="58" viewBox="0 0 57 58" fill="none" xmlns="http://www.w3.org/2000/svg">
<rect x="0.518243" y="0.518182" width="55.9636" height="55.9636" rx="27.9818" fill="url(#paint0_linear_61_7385)" stroke="#F6CE90" stroke-width="1.03636"/>
<path d="M28.5 57.0676C12.7599 57.0676 0 44.3077 0 28.5676C0 12.8275 12.7599 0.067627 28.5 0.067627C44.2401 0.067627 57 12.8275 57 28.5676C57 44.3077 44.2401 57.0676 28.5 57.0676Z" fill="#F6A23C"/>
<path opacity="0.7" d="M0.933853 28.5679C0.927181 34.6517 2.94427 40.565 6.66748 45.3765C7.65055 46.6618 8.74755 47.8556 9.94516 48.9437C11.0434 49.9537 12.2276 50.8661 13.4843 51.6705C13.5287 51.7163 13.583 51.7514 13.6431 51.7732C14.6228 52.4164 15.6463 52.9905 16.706 53.4914C22.1839 56.0859 28.3647 56.8012 34.2904 55.5266C40.2162 54.252 45.5562 51.0585 49.4828 46.4411C52.3608 43.0598 54.3793 39.0333 55.3667 34.7042C56.3541 30.3751 56.2811 25.8716 55.154 21.5768C54.0268 17.2819 51.8789 13.323 48.8929 10.0366C45.907 6.75032 42.1713 4.23394 38.0039 2.7016C33.8364 1.16925 29.3604 0.666292 24.9568 1.23551C20.5532 1.80474 16.3523 3.42929 12.7114 5.97096C9.07056 8.51263 6.09757 11.8962 4.04538 15.8337C1.99319 19.7713 0.922531 24.1463 0.924519 28.5866L0.933853 28.5679Z" fill="white"/>
<path d="M22.0848 28.5675C21.4778 27.2228 21.0482 27.8111 19.2833 29.1651C18.6204 29.593 18.0833 30.1895 17.7272 30.8935C17.3711 31.5976 17.2088 32.3837 17.257 33.1712C17.257 34.6093 17.5278 37.4761 17.5278 37.4761L12.9708 42.584L15.0345 45.6936L20.3292 39.7172C20.3292 39.7172 22.9439 37.7469 23.3828 35.5338C23.8217 33.3206 22.0848 28.5675 22.0848 28.5675Z" fill="#EBB376"/>
<path d="M22.7103 27.0361L18.9751 33.7409C18.892 33.8876 18.8572 34.0568 18.8756 34.2244C18.8941 34.392 18.9648 34.5496 19.0778 34.6747L21.9726 38.0178C22.0574 38.1161 22.1643 38.193 22.2845 38.242C22.4047 38.2911 22.5348 38.311 22.6642 38.3001C22.7936 38.2891 22.9185 38.2477 23.0288 38.1791C23.1391 38.1106 23.2316 38.0169 23.2986 37.9057L26.6417 32.3962L22.7103 27.0361Z" fill="#263238"/>
<path opacity="0.4" d="M22.8971 27.7551L19.6007 33.9556L22.7383 37.6536L26.1094 32.1721L22.8971 27.7551Z" fill="#F6A23C"/>
<path d="M13.4842 51.6609C13.4842 51.801 13.4376 51.9317 13.4189 52.0625L13.643 51.7637C14.6228 52.4069 15.6462 52.981 16.7059 53.4819C16.4631 51.6142 16.1923 49.8774 15.9495 48.4486C15.7067 47.0199 15.5386 46.0674 15.3892 45.311C15.2398 44.5546 15.1558 44.1157 15.1371 44.041C14.8129 44.104 14.4987 44.2108 14.2033 44.3585C12.7745 45.0589 11.4018 46.7304 9.99178 48.9435C11.0756 49.9481 12.2441 50.8573 13.4842 51.6609Z" fill="#F6A23C"/>
<path d="M13.3722 52.0624L13.5963 51.7636C14.5761 52.4069 15.5996 52.981 16.6592 53.4818C22.1372 56.0763 28.3179 56.7917 34.2437 55.5171C40.1695 54.2424 45.5094 51.049 49.4361 46.4316C48.9599 46.3195 48.5023 46.2168 47.9887 46.1234H47.8393L47.5498 46.0674C46.2892 45.8246 45.0005 45.6098 43.7118 45.423L42.0216 45.1896C41.2746 45.0869 40.5275 45.0028 39.7898 44.9188H39.6124C37.9035 44.7227 36.1946 44.5639 34.5324 44.4425L32.9076 44.3398L30.8345 44.2091L28.8175 44.1157H28.0051L25.6612 44.0503C23.2053 43.9943 21.0482 43.9943 19.33 44.0503H18.1907L16.5472 44.097C15.6134 44.097 15.1278 44.097 15.1278 44.097C15.0157 44.5079 14.9037 44.9374 14.8009 45.3763C14.3247 47.244 13.8671 49.4198 13.4749 51.7076C13.4563 51.801 13.4376 51.9317 13.3722 52.0624Z" fill="#F6A23C"/>
<path opacity="0.2" d="M13.3722 52.0625L13.5963 51.7637C14.5761 52.4069 15.5996 52.981 16.6592 53.4819C22.1372 56.0764 28.3179 56.7917 34.2437 55.5171C40.1695 54.2425 45.5094 51.049 49.4361 46.4316L50.1084 46.5717L49.4454 46.4222L47.9887 46.1234H47.8393L47.5498 46.0674C46.2891 45.8246 45.0005 45.6098 43.7118 45.4231L42.0216 45.1896C41.2745 45.0869 40.5275 45.0028 39.7898 44.9188H39.6124C37.9035 44.7227 36.1946 44.564 34.5324 44.4426L32.9169 44.3305L30.8252 44.2091L28.8081 44.1157H27.9957L25.6612 44.041C23.1959 44.041 20.9921 44.041 19.3206 44.041H18.1813H16.5565L15.1184 44.097C15.0064 44.5079 14.8943 44.9375 14.7916 45.3764C14.3154 47.244 13.8578 49.4198 13.4656 51.7076C13.4562 51.801 13.4376 51.9317 13.3722 52.0625Z" fill="black"/>
<path d="M39.8459 44.8532C36.8203 47.6546 29.3871 46.5901 29.3871 46.5901C29.3871 46.5901 24.7181 45.3201 25.7266 43.8727C28.4533 43.4151 29.7793 42.1451 30.3209 40.5109C30.6193 39.5 30.7145 38.4399 30.6011 37.392C30.5586 36.8093 30.4838 36.2295 30.377 35.6551L39.519 28.8569C38.3517 33.3392 36.8763 41.5942 39.8459 44.8532Z" fill="#EBB376"/>
<path opacity="0.2" d="M37.4366 33.1714C37.0725 38.6809 32.5435 40.203 30.321 40.5112C30.6193 39.5002 30.7145 38.4402 30.6011 37.3922L37.4366 33.1714Z" fill="black"/>
<path d="M21.5897 15.7652C21.5897 15.7652 20.2824 24.3376 24.8394 27.6339C29.3964 30.9303 29.3871 14.9714 29.3871 14.9714L21.5897 15.7652Z" fill="#263238"/>
<path d="M38.0529 34.4508C37.0993 35.8629 35.7084 36.9229 34.0939 37.4678C32.4794 38.0128 30.7307 38.0125 29.1163 37.467C27.0119 36.8038 25.2411 35.3604 24.1671 33.4329C24.0134 33.1677 23.8762 32.8933 23.7563 32.6112C21.5151 27.3725 20.8054 18.2024 26.3429 14.7753C27.2784 14.1835 28.3216 13.7823 29.4127 13.5948C30.5037 13.4073 31.621 13.4372 32.7004 13.6828C33.7798 13.9283 34.8001 14.3847 35.7026 15.0257C36.6051 15.6667 37.3721 16.4797 37.9596 17.418C38.6759 18.5434 39.1114 19.8245 39.2296 21.1533C39.9112 27.2511 40.6022 30.8276 38.0529 34.4508Z" fill="#EBB376"/>
<path d="M30.3022 24.403C30.4142 24.8885 30.1901 25.3368 29.8633 25.3928C29.5365 25.4488 29.2096 25.0846 29.1256 24.5991C29.0415 24.1135 29.2376 23.6652 29.5551 23.5999C29.8726 23.5345 30.1808 23.8987 30.3022 24.403Z" fill="#263238"/>
<path d="M24.7086 25.3554C24.8207 25.8409 24.5966 26.2892 24.2697 26.3452C23.9429 26.4012 23.6161 26.0464 23.532 25.5515C23.448 25.0565 23.6441 24.6176 23.9616 24.5616C24.2791 24.5056 24.5779 24.8884 24.7086 25.3554Z" fill="#263238"/>
<path d="M26.5203 25.2993C26.1945 26.9239 25.6445 28.4953 24.8861 29.9684C25.2688 30.1482 25.6865 30.2415 26.1094 30.2415C26.5323 30.2415 26.95 30.1482 27.3327 29.9684L26.5203 25.2993Z" fill="#D58745"/>
<path d="M31.7217 22.2924C31.6706 22.3094 31.6159 22.3123 31.5633 22.3008C31.5107 22.2893 31.4621 22.2638 31.4228 22.227C31.1586 21.9689 30.838 21.7755 30.4865 21.6621C30.1349 21.5487 29.7618 21.5183 29.3965 21.5733C29.3209 21.5919 29.2411 21.5797 29.1746 21.5394C29.108 21.4991 29.0602 21.4341 29.0416 21.3586C29.023 21.283 29.0352 21.2032 29.0755 21.1366C29.1158 21.0701 29.1809 21.0223 29.2564 21.0037C29.7167 20.9209 30.1902 20.9498 30.637 21.0879C31.0839 21.226 31.4911 21.4693 31.8244 21.7974C31.8515 21.8243 31.873 21.8564 31.8877 21.8916C31.9024 21.9269 31.9099 21.9647 31.9099 22.0029C31.9099 22.0411 31.9024 22.0789 31.8877 22.1141C31.873 22.1494 31.8515 22.1814 31.8244 22.2083C31.7938 22.2405 31.7593 22.2687 31.7217 22.2924Z" fill="#263238"/>
<path d="M21.9726 23.8331C21.918 23.8509 21.8591 23.8509 21.8045 23.8331C21.7667 23.8234 21.7312 23.8062 21.7002 23.7824C21.6691 23.7587 21.6433 23.7289 21.6241 23.6949C21.6049 23.6608 21.5928 23.6233 21.5885 23.5844C21.5842 23.5456 21.5878 23.5063 21.5991 23.4689C21.719 23.0162 21.9462 22.599 22.2616 22.2528C22.5769 21.9065 22.9711 21.6414 23.4107 21.4799C23.4475 21.4684 23.4862 21.4644 23.5245 21.4681C23.5629 21.4718 23.6001 21.4831 23.634 21.5014C23.6679 21.5197 23.6979 21.5445 23.722 21.5745C23.7462 21.6045 23.7642 21.639 23.7749 21.676C23.7932 21.7502 23.7832 21.8286 23.747 21.8959C23.7108 21.9632 23.6508 22.0146 23.5788 22.0402C23.2342 22.1774 22.9264 22.3932 22.6799 22.6705C22.4335 22.9477 22.2553 23.2787 22.1594 23.637C22.1466 23.6824 22.1229 23.7241 22.0904 23.7582C22.0578 23.7924 22.0174 23.8181 21.9726 23.8331Z" fill="#263238"/>
<path d="M33.4772 14.3082V17.0442C33.957 17.2072 34.3583 17.544 34.6021 17.9883C34.8458 18.4325 34.9142 18.9519 34.7939 19.4441C34.2056 21.816 35.9238 25.1778 37.8288 26.373C37.8288 26.373 37.7634 25.3832 38.6225 25.5139C39.4816 25.6447 39.8738 30.79 38.5572 33.4327C38.5572 33.4327 40.733 30.9207 41.4613 25.3832C42.1337 20.2566 41.7882 16.1011 40.5275 14.2988L33.4772 14.3082Z" fill="#263238"/>
<path d="M42.7313 25.6541C42.2971 27.1434 41.2895 28.3995 39.9299 29.1466C38.1183 30.0804 36.7642 28.6049 36.8856 26.6533C37.0164 24.9257 38.0902 22.283 40.0979 22.1336C40.5343 22.103 40.9714 22.1824 41.3692 22.3644C41.7669 22.5465 42.1126 22.8255 42.3747 23.1757C42.6367 23.526 42.8066 23.9365 42.8689 24.3694C42.9312 24.8024 42.8839 25.2441 42.7313 25.6541Z" fill="#EBB376"/>
<path d="M33.4772 17.0446C33.4772 17.0446 31.7029 18.8095 29.9754 17.5208C29.9754 17.5208 28.0237 19.1457 26.4269 17.9878C26.1747 18.4053 25.8401 18.7672 25.4436 19.0514C25.0471 19.3355 24.5968 19.536 24.1204 19.6406C23.9389 19.6657 23.7542 19.6503 23.5794 19.5956C23.4046 19.5408 23.2441 19.4481 23.1093 19.3241C22.9745 19.2 22.8689 19.0477 22.7999 18.878C22.7309 18.7083 22.7003 18.5255 22.7103 18.3426C22.7103 18.3426 20.4505 19.6406 19.61 19.0336C18.7696 18.4266 20.0676 15.9987 20.0676 15.9987C20.0676 15.9987 19.0031 15.4291 19.6941 13.4774C20.3851 11.5258 23.5134 11.974 23.5134 11.974C23.5134 11.974 23.392 10.1064 25.5958 8.23873C25.8275 7.97725 26.1197 7.77651 26.4469 7.65406C26.7741 7.53162 27.1263 7.4912 27.4727 7.53634C27.8191 7.58149 28.1492 7.71082 28.4341 7.91303C28.719 8.11524 28.95 8.38417 29.1069 8.6963C29.1069 8.6963 31.236 5.81082 33.8787 6.19368C36.5214 6.57654 36.2133 8.38815 36.2133 8.38815C36.2133 8.38815 39.2575 6.52052 40.6209 8.38815C41.9842 10.2558 40.6209 11.1896 40.6209 11.1896C40.6209 11.1896 43.6558 12.2074 43.5063 14.2805C43.3569 16.3536 41.7975 16.0454 41.7975 16.0454C41.7975 16.0454 42.6659 17.0353 40.6956 17.913C38.7252 18.7908 36.8669 16.6991 36.8669 16.6991C36.9743 16.8673 37.0429 17.0574 37.0677 17.2555C37.0925 17.4535 37.0729 17.6547 37.0103 17.8442C36.9478 18.0338 36.8438 18.207 36.7059 18.3513C36.568 18.4957 36.3997 18.6075 36.2133 18.6788C34.7939 19.4445 33.4772 17.0446 33.4772 17.0446Z" fill="#263238"/>
<path d="M27.4634 31.8078C28.0835 32.3879 28.6609 33.0121 29.191 33.6754L29.5738 33.4513C31.3294 32.4334 31.8057 31.3876 31.8057 30.5285C31.7929 30.1127 31.6809 29.7061 31.4788 29.3425C31.383 29.1403 31.2605 28.9519 31.1146 28.7822C30.3106 29.8877 29.2789 30.808 28.0891 31.4809C27.6969 31.677 27.4634 31.8078 27.4634 31.8078Z" fill="#263238"/>
<path d="M28.0517 31.4529L28.5747 31.9852C30.2275 31.0514 31.2547 30.1176 31.4788 29.3332C31.3823 29.1342 31.2598 28.949 31.1146 28.7822C30.2968 29.8816 29.2523 30.7924 28.0517 31.4529Z" fill="white"/>
<path d="M29.5739 33.4519C31.3295 32.434 31.8057 31.3882 31.8057 30.5291C31.1472 30.9304 30.5628 31.4421 30.0781 32.0418C29.769 32.4488 29.5929 32.9412 29.5739 33.4519Z" fill="#DE5753"/>
<path d="M29.3871 46.5903C29.3871 46.5903 40.0979 39.3065 43.5064 38.905C46.9148 38.5035 46.3078 42.743 46.3078 42.743C46.3078 42.743 48.9411 42.743 47.9326 45.9833C46.9241 49.2236 32.3659 51.0072 26.9965 49.4011C21.6271 47.7949 18.4241 44.788 19.3112 41.9306C20.1984 39.0731 22.6916 41.529 22.6916 41.529C22.6916 41.529 24.139 38.849 26.2214 39.4746C28.3039 40.1003 29.3871 46.5903 29.3871 46.5903Z" fill="#F6A23C"/>
<path d="M6.66741 45.367C7.65048 46.6522 8.74748 47.8461 9.9451 48.9342C11.0434 49.9442 12.2276 50.8565 13.4842 51.6609C13.4842 51.801 13.4376 51.9317 13.4189 52.0624L13.643 51.7636C14.3527 50.8298 15.1744 49.6532 15.9495 48.4486C16.8862 47.049 17.6423 45.5367 18.2 43.9476C18.3225 43.5724 18.3978 43.1835 18.4241 42.7897L19.3579 41.557L19.0685 41.2209L16.7152 38.4194L16.2016 37.8218L15.1931 39.1385C15.1931 39.1385 13.8951 38.6715 9.73966 42.2481C8.64196 43.2125 7.61522 44.2549 6.66741 45.367Z" fill="#F6A23C"/>
<defs>
<linearGradient id="paint0_linear_61_7385" x1="28.5001" y1="0" x2="28.5001" y2="57" gradientUnits="userSpaceOnUse">
<stop offset="1" stop-color="#FFF3E0"/>
</linearGradient>
</defs>
</svg>
